<svg width="84" height="107" viewBox="0 0 84 107" fill="none" xmlns="http://www.w3.org/2000/svg">
<path d="M13.498 11.2832H1.17374C0.525502 11.2832 0 11.8068 0 12.4527V94.219C0 94.8649 0.525502 95.3885 1.17374 95.3885H13.498C14.1463 95.3885 14.6718 94.8649 14.6718 94.219V12.4527C14.6718 11.8068 14.1463 11.2832 13.498 11.2832Z" fill="#353535"/>
<path d="M20.5074 38.2889V1.16953C20.5074 0.85936 20.6311 0.561893 20.8512 0.342569C21.0713 0.123244 21.3698 2.94173e-05 21.6811 2.94173e-05H82.4512C82.6056 -0.0010659 82.7588 0.0284363 82.9017 0.0868214C83.0446 0.145206 83.1744 0.23131 83.2836 0.340127C83.3928 0.448944 83.4792 0.578304 83.5378 0.72069C83.5964 0.863075 83.626 1.01564 83.6249 1.16953V105.42C83.6249 105.73 83.5013 106.028 83.2812 106.247C83.061 106.466 82.7625 106.589 82.4512 106.589H21.6811C21.3705 106.587 21.0732 106.463 20.8536 106.244C20.6339 106.026 20.5096 105.729 20.5074 105.42V67.3864C20.5047 67.1358 20.5828 66.8909 20.7303 66.6878C20.8779 66.4848 21.087 66.3344 21.3268 66.2587C21.5666 66.1831 21.8245 66.1862 22.0624 66.2676C22.3003 66.3491 22.5057 66.5045 22.6482 66.711L42.1555 94.8038C42.2626 94.9586 42.4057 95.0852 42.5728 95.1727C42.7398 95.2602 42.9256 95.306 43.1143 95.3062H58.8193C59.0332 95.3052 59.2428 95.2461 59.4254 95.1351C59.608 95.0241 59.7567 94.8655 59.8554 94.6764C59.9541 94.4873 59.9991 94.275 59.9855 94.0623C59.9718 93.8496 59.9002 93.6446 59.7781 93.4696L31.8067 53.7312C31.6635 53.5334 31.5864 53.2957 31.5864 53.0518C31.5864 52.8078 31.6635 52.5701 31.8067 52.3723L59.7285 14.1082C59.8548 13.9336 59.9302 13.7278 59.9466 13.5133C59.9629 13.2987 59.9196 13.0839 59.8213 12.8923C59.7231 12.7008 59.5737 12.5399 59.3896 12.4275C59.2055 12.3151 58.9939 12.2554 58.778 12.2551H43.7095C43.5298 12.2551 43.3526 12.2968 43.1919 12.3768C43.0313 12.4569 42.8915 12.5731 42.7837 12.7163L22.6152 38.9971C22.4664 39.1919 22.2601 39.3353 22.0252 39.407C21.7903 39.4788 21.5388 39.4753 21.306 39.3971C21.0733 39.3189 20.871 39.1698 20.7277 38.971C20.5844 38.7722 20.5074 38.5336 20.5074 38.2889Z" fill="#353535"/>
</svg>
